<svg width="115" height="19" viewBox="0 0 115 19" fill="none" xmlns="http://www.w3.org/2000/svg">
<g clip-path="url(#clip0_250_653)">
<path d="M3.60672 15.4587H8.70788V18.5223H0V0.477539H3.60672V15.4565V15.4587Z" fill="black"/>
<path d="M14.6942 3.5411V7.51213H20.4342V10.5757H14.6942V15.4565H20.6557V18.52H11.0898V0.477539H20.6557V3.5411H14.6942Z" fill="black"/>
<path d="M44.9636 5.26514C43.9587 4.06883 42.4363 3.35013 40.8929 3.35013C37.4331 3.35013 35.4467 6.46146 35.4467 9.57051C35.4467 12.6796 37.5077 15.6476 40.8673 15.6476C42.413 15.6476 43.9587 14.8584 44.9636 13.7326V17.9197C43.6137 18.5429 42.2661 18.9954 40.7694 18.9954C35.5679 18.9954 31.7188 14.6173 31.7188 9.63874C31.7188 4.66016 35.4234 0 40.8416 0C42.2894 0 43.7116 0.382092 44.9636 1.05303V5.26514Z" fill="black"/>
<path d="M52.3461 14.7151L50.826 18.5201H47.0234L54.2369 0H57.0323L64.0475 18.5201H60.196L58.7738 14.7151H52.3461ZM55.4609 5.28789H55.4119L53.3766 11.8449H57.7667L55.4609 5.28789Z" fill="black"/>
<path d="M78.8913 18.52H74.5245L70.0365 11.2466H69.9876V18.52H66.3809V0.477539H71.2629C74.9185 0.477539 77.4435 2.05594 77.4435 5.90871C77.4435 8.20581 76.1425 10.5029 73.6666 10.91L78.8913 18.52ZM69.9876 8.78123H70.4539C72.4402 8.78123 73.8391 8.20809 73.8391 6.00651C73.8391 3.80493 72.3913 3.35005 70.4795 3.35005H69.9876V8.78123Z" fill="black"/>
<path d="M86.8151 18.52H83.2084V3.5411H79.4805V0.477539H90.5431V3.5411H86.8151V18.52Z" fill="black"/>
<path d="M96.702 3.5411V7.51213H102.442V10.5757H96.702V15.4565H102.664V18.52H93.0977V0.477539H102.664V3.5411H96.702Z" fill="black"/>
<path d="M109.9 15.4587H115.001V18.5223H106.293V0.477539H109.9V15.4565V15.4587Z" fill="black"/>
</g>
<defs>
<clipPath id="clip0_250_653">
<rect width="115" height="19" fill="white"/>
</clipPath>
</defs>
</svg>
