<svg width="16" height="9" viewBox="0 0 16 9" fill="none" xmlns="http://www.w3.org/2000/svg">
<path d="M15.92 4.61571C15.8724 4.49311 15.801 4.3811 15.71 4.28612L12.71 1.28982C12.6168 1.1967 12.5061 1.12283 12.3842 1.07243C12.2624 1.02203 12.1319 0.996094 12 0.996094C11.7337 0.996094 11.4783 1.10175 11.29 1.28982C11.1017 1.47789 10.9959 1.73297 10.9959 1.99895C10.9959 2.26492 11.1017 2.52 11.29 2.70807L12.59 3.99648H1C0.734784 3.99648 0.48043 4.1017 0.292893 4.28901C0.105357 4.47631 0 4.73035 0 4.99524C0 5.26013 0.105357 5.51417 0.292893 5.70148C0.48043 5.88878 0.734784 5.99401 1 5.99401H12.59L11.29 7.28241C11.1963 7.37526 11.1219 7.48573 11.0711 7.60744C11.0203 7.72914 10.9942 7.85969 10.9942 7.99154C10.9942 8.12339 11.0203 8.25393 11.0711 8.37564C11.1219 8.49735 11.1963 8.60781 11.29 8.70066C11.383 8.79427 11.4936 8.86858 11.6154 8.91928C11.7373 8.96999 11.868 8.99609 12 8.99609C12.132 8.99609 12.2627 8.96999 12.3846 8.91928C12.5064 8.86858 12.617 8.79427 12.71 8.70066L15.71 5.70437C15.801 5.60938 15.8724 5.49737 15.92 5.37477C16.02 5.13161 16.02 4.85887 15.92 4.61571Z" fill="#13100E"/>
</svg>
