<svg width="1070" height="177" viewBox="0 0 1070 177" fill="none" xmlns="http://www.w3.org/2000/svg">
<g clip-path="url(#clip0_250_796)">
<path d="M33.5582 144.011H81.0212V172.55H0V4.44922H33.5582V143.99V144.011Z" fill="white"/>
<path d="M136.728 32.9887V69.982H190.135V98.5215H136.728V143.99H192.195V172.529H103.191V4.44922H192.195V32.9887H136.728Z" fill="white"/>
<path d="M418.36 49.049C409.01 37.9044 394.845 31.2091 380.485 31.2091C348.293 31.2091 329.811 60.1936 329.811 89.1568C329.811 118.12 348.987 145.77 380.246 145.77C394.628 145.77 409.01 138.418 418.36 127.93V166.936C405.8 172.741 393.261 176.958 379.335 176.958C330.939 176.958 295.125 136.172 295.125 89.7924C295.125 43.4131 329.594 0 380.007 0C393.478 0 406.711 3.55949 418.36 9.80979V49.049Z" fill="white"/>
<path d="M487.059 137.083L472.915 172.529H437.535L504.651 0H530.661L595.933 172.529H560.097L546.865 137.083H487.059ZM516.04 49.2608H515.584L496.647 110.344H537.494L516.04 49.2608Z" fill="white"/>
<path d="M734.028 172.529H693.399L651.641 104.772H651.185V172.529H617.627V4.44922H663.051C697.065 4.44922 720.557 19.1533 720.557 55.0449C720.557 76.4442 708.453 97.8435 685.416 101.636L734.028 172.529ZM651.185 81.8046H655.524C674.006 81.8046 687.021 76.4654 687.021 55.9559C687.021 35.4465 673.55 31.209 655.762 31.209H651.185V81.8046Z" fill="white"/>
<path d="M807.76 172.529H774.202V32.9887H739.516V4.44922H842.446V32.9887H807.76V172.529Z" fill="white"/>
<path d="M899.736 32.9887V69.982H953.142V98.5215H899.736V143.99H955.203V172.529H866.199V4.44922H955.203V32.9887H899.736Z" fill="white"/>
<path d="M1022.54 144.011H1070V172.55H988.979V4.44922H1022.54V143.99V144.011Z" fill="white"/>
</g>
<defs>
<clipPath id="clip0_250_796">
<rect width="1070" height="177" fill="white"/>
</clipPath>
</defs>
</svg>
