<svg width="13" height="14" viewBox="0 0 13 14" fill="none" xmlns="http://www.w3.org/2000/svg">
<path d="M7.46875 7C7.46875 7.46599 7.09099 7.84375 6.625 7.84375C6.15901 7.84375 5.78125 7.46599 5.78125 7C5.78125 6.53401 6.15901 6.15625 6.625 6.15625C7.09099 6.15625 7.46875 6.53401 7.46875 7Z" stroke="black"/>
<path d="M6.625 3.625V6.15625M7.46875 7.84375L8.3125 8.6875" stroke="black" stroke-linecap="round" stroke-linejoin="round"/>
<path d="M1 7C1 3.8934 3.5184 1.375 6.625 1.375C9.7316 1.375 12.25 3.8934 12.25 7C12.25 10.1066 9.7316 12.625 6.625 12.625H1" stroke="black" stroke-linecap="round"/>
<path d="M4.375 10.375H1" stroke="black" stroke-linecap="round" stroke-linejoin="round"/>
<path d="M3.25 8.68726H1" stroke="black" stroke-linecap="round" stroke-linejoin="round"/>
</svg>
