<svg width="17" height="15" viewBox="0 0 17 15" fill="none" xmlns="http://www.w3.org/2000/svg">
<path d="M7.35452 12.3569C7.55135 13.0531 7.11542 13.7687 6.38084 13.9552C5.64626 14.1418 4.8912 13.7286 4.69437 13.0324C4.49754 12.3362 4.93347 11.6206 5.66805 11.4341M7.35452 12.3569C7.15769 11.6607 6.40263 11.2475 5.66805 11.4341M7.35452 12.3569L16 10.1614M5.66805 11.4341L3.3515 3.2403C3.15467 2.5441 2.39962 2.13095 1.66504 2.31749L1 2.48638M9.20639 3.78008L10.5365 3.44231M8.81504 9.95934L14.1353 8.60826C14.8699 8.42171 15.3058 7.70611 15.109 7.00991L13.6834 1.9676C13.4866 1.2714 12.7316 0.858247 11.997 1.04479L6.67669 2.39587C5.94211 2.58242 5.50618 3.29803 5.70301 3.99422L7.12858 9.03653C7.32541 9.73273 8.08046 10.1459 8.81504 9.95934Z" stroke="black" stroke-linecap="round" stroke-linejoin="round"/>
</svg>
